<mxfile host="app.diagrams.net" modified="2024-02-14T02:29:45.136Z" agent="Mozilla/5.0 (Windows NT 10.0; Win64; x64) AppleWebKit/537.36 (KHTML, like Gecko) Chrome/121.0.0.0 Safari/537.36 Edg/121.0.0.0" etag="O795PYmkWdMjHGS2mSkh" version="23.1.4" type="github">
  <diagram name="Page-1" id="MsAcD9wUIuVss249Any_">
    <mxGraphModel dx="1386" dy="785" grid="1" gridSize="10" guides="1" tooltips="1" connect="1" arrows="1" fold="1" page="1" pageScale="1" pageWidth="1654" pageHeight="1169" math="0" shadow="0">
      <root>
        <mxCell id="0" />
        <mxCell id="1" parent="0" />
        <mxCell id="PWgpVzjd51y_IINd4fkb-41" value="" style="rounded=0;whiteSpace=wrap;html=1;textOpacity=10;fillColor=#f5f5f5;strokeColor=#666666;glass=0;shadow=0;strokeWidth=0;fontColor=#333333;" vertex="1" parent="1">
          <mxGeometry x="857" y="148" width="323" height="340" as="geometry" />
        </mxCell>
        <mxCell id="PWgpVzjd51y_IINd4fkb-13" value="Architecture" style="swimlane;childLayout=stackLayout;resizeParent=1;resizeParentMax=0;horizontal=1;startSize=20;horizontalStack=0;html=1;fontSize=14;" vertex="1" parent="1">
          <mxGeometry x="90" y="21" width="580" height="1130" as="geometry" />
        </mxCell>
        <mxCell id="PWgpVzjd51y_IINd4fkb-14" value="Client" style="swimlane;startSize=20;horizontal=0;html=1;" vertex="1" parent="PWgpVzjd51y_IINd4fkb-13">
          <mxGeometry y="20" width="580" height="120" as="geometry" />
        </mxCell>
        <mxCell id="PWgpVzjd51y_IINd4fkb-27" value="" style="sketch=0;outlineConnect=0;fontColor=#232F3E;gradientColor=none;fillColor=#232F3D;strokeColor=none;dashed=0;verticalLabelPosition=bottom;verticalAlign=top;align=center;html=1;fontSize=12;fontStyle=0;aspect=fixed;pointerEvents=1;shape=mxgraph.aws4.mobile_client;" vertex="1" parent="PWgpVzjd51y_IINd4fkb-14">
          <mxGeometry x="90" y="19" width="36.79" height="70" as="geometry" />
        </mxCell>
        <mxCell id="PWgpVzjd51y_IINd4fkb-15" value="Presentation Layer" style="swimlane;startSize=20;horizontal=0;html=1;" vertex="1" parent="PWgpVzjd51y_IINd4fkb-13">
          <mxGeometry y="140" width="580" height="200" as="geometry" />
        </mxCell>
        <mxCell id="PWgpVzjd51y_IINd4fkb-34" style="edgeStyle=orthogonalEdgeStyle;rounded=0;orthogonalLoop=1;jettySize=auto;html=1;entryX=0;entryY=0.5;entryDx=0;entryDy=0;strokeColor=default;strokeWidth=2;align=center;verticalAlign=middle;fontFamily=Helvetica;fontSize=11;fontColor=default;labelBackgroundColor=default;endArrow=classic;" edge="1" parent="PWgpVzjd51y_IINd4fkb-15" source="PWgpVzjd51y_IINd4fkb-28" target="PWgpVzjd51y_IINd4fkb-30">
          <mxGeometry relative="1" as="geometry" />
        </mxCell>
        <mxCell id="PWgpVzjd51y_IINd4fkb-28" value="User Input Processing" style="rounded=1;whiteSpace=wrap;html=1;" vertex="1" parent="PWgpVzjd51y_IINd4fkb-15">
          <mxGeometry x="64" y="100" width="90" height="40" as="geometry" />
        </mxCell>
        <mxCell id="PWgpVzjd51y_IINd4fkb-33" style="edgeStyle=orthogonalEdgeStyle;rounded=0;orthogonalLoop=1;jettySize=auto;html=1;strokeColor=default;strokeWidth=2;align=center;verticalAlign=middle;fontFamily=Helvetica;fontSize=11;fontColor=default;labelBackgroundColor=default;endArrow=classic;" edge="1" parent="PWgpVzjd51y_IINd4fkb-15" source="PWgpVzjd51y_IINd4fkb-29" target="PWgpVzjd51y_IINd4fkb-28">
          <mxGeometry relative="1" as="geometry" />
        </mxCell>
        <mxCell id="PWgpVzjd51y_IINd4fkb-29" value="Mobile UI" style="rounded=1;whiteSpace=wrap;html=1;" vertex="1" parent="PWgpVzjd51y_IINd4fkb-15">
          <mxGeometry x="64" y="30" width="90" height="30" as="geometry" />
        </mxCell>
        <mxCell id="PWgpVzjd51y_IINd4fkb-30" value="Local Data Caching" style="rounded=1;whiteSpace=wrap;html=1;" vertex="1" parent="PWgpVzjd51y_IINd4fkb-15">
          <mxGeometry x="230" y="95" width="120" height="50" as="geometry" />
        </mxCell>
        <mxCell id="PWgpVzjd51y_IINd4fkb-16" value="Business Layer" style="swimlane;startSize=20;horizontal=0;html=1;" vertex="1" parent="PWgpVzjd51y_IINd4fkb-13">
          <mxGeometry y="340" width="580" height="270" as="geometry" />
        </mxCell>
        <mxCell id="PWgpVzjd51y_IINd4fkb-37" style="edgeStyle=orthogonalEdgeStyle;rounded=0;orthogonalLoop=1;jettySize=auto;html=1;entryX=0;entryY=0.5;entryDx=0;entryDy=0;strokeColor=default;strokeWidth=2;align=center;verticalAlign=middle;fontFamily=Helvetica;fontSize=11;fontColor=default;labelBackgroundColor=default;endArrow=classic;" edge="1" parent="PWgpVzjd51y_IINd4fkb-16" source="PWgpVzjd51y_IINd4fkb-31" target="PWgpVzjd51y_IINd4fkb-36">
          <mxGeometry relative="1" as="geometry" />
        </mxCell>
        <mxCell id="PWgpVzjd51y_IINd4fkb-31" value="API Gateway" style="rounded=1;whiteSpace=wrap;html=1;" vertex="1" parent="PWgpVzjd51y_IINd4fkb-16">
          <mxGeometry x="64" y="30" width="90" height="40" as="geometry" />
        </mxCell>
        <mxCell id="PWgpVzjd51y_IINd4fkb-39" style="edgeStyle=orthogonalEdgeStyle;rounded=0;orthogonalLoop=1;jettySize=auto;html=1;entryX=0.5;entryY=0;entryDx=0;entryDy=0;strokeColor=default;strokeWidth=2;align=center;verticalAlign=middle;fontFamily=Helvetica;fontSize=11;fontColor=default;labelBackgroundColor=default;endArrow=classic;" edge="1" parent="PWgpVzjd51y_IINd4fkb-16" source="PWgpVzjd51y_IINd4fkb-36" target="PWgpVzjd51y_IINd4fkb-38">
          <mxGeometry relative="1" as="geometry" />
        </mxCell>
        <mxCell id="PWgpVzjd51y_IINd4fkb-36" value="AutoScheduler&lt;br&gt;Internal Engine" style="rounded=1;whiteSpace=wrap;html=1;" vertex="1" parent="PWgpVzjd51y_IINd4fkb-16">
          <mxGeometry x="220" y="30" width="90" height="40" as="geometry" />
        </mxCell>
        <mxCell id="PWgpVzjd51y_IINd4fkb-38" value="AutoScheduler Orchestration Engine" style="rounded=1;whiteSpace=wrap;html=1;" vertex="1" parent="PWgpVzjd51y_IINd4fkb-16">
          <mxGeometry x="309" y="150" width="100" height="60" as="geometry" />
        </mxCell>
        <mxCell id="PWgpVzjd51y_IINd4fkb-24" value="Data Access Layer" style="swimlane;startSize=20;horizontal=0;html=1;" vertex="1" parent="PWgpVzjd51y_IINd4fkb-13">
          <mxGeometry y="610" width="580" height="190" as="geometry" />
        </mxCell>
        <mxCell id="PWgpVzjd51y_IINd4fkb-46" value="Data API" style="rounded=1;whiteSpace=wrap;html=1;" vertex="1" parent="PWgpVzjd51y_IINd4fkb-24">
          <mxGeometry x="100" y="69" width="120" height="60" as="geometry" />
        </mxCell>
        <mxCell id="PWgpVzjd51y_IINd4fkb-25" value="Data Layer" style="swimlane;startSize=20;horizontal=0;html=1;" vertex="1" parent="PWgpVzjd51y_IINd4fkb-13">
          <mxGeometry y="800" width="580" height="140" as="geometry" />
        </mxCell>
        <mxCell id="PWgpVzjd51y_IINd4fkb-45" value="Database" style="shape=cylinder3;whiteSpace=wrap;html=1;boundedLbl=1;backgroundOutline=1;size=15;" vertex="1" parent="PWgpVzjd51y_IINd4fkb-25">
          <mxGeometry x="197" y="32" width="60" height="80" as="geometry" />
        </mxCell>
        <mxCell id="PWgpVzjd51y_IINd4fkb-49" value="File Storages" style="sketch=0;outlineConnect=0;fontColor=#232F3E;gradientColor=none;fillColor=#060eef;strokeColor=none;dashed=0;verticalLabelPosition=bottom;verticalAlign=top;align=center;html=1;fontSize=12;fontStyle=0;aspect=fixed;pointerEvents=1;shape=mxgraph.aws4.file_system;" vertex="1" parent="PWgpVzjd51y_IINd4fkb-25">
          <mxGeometry x="295" y="35" width="48.09" height="45" as="geometry" />
        </mxCell>
        <mxCell id="PWgpVzjd51y_IINd4fkb-26" value="Cross Cutting Concerns" style="swimlane;startSize=20;horizontal=0;html=1;" vertex="1" parent="PWgpVzjd51y_IINd4fkb-13">
          <mxGeometry y="940" width="580" height="190" as="geometry" />
        </mxCell>
        <mxCell id="PWgpVzjd51y_IINd4fkb-82" value="" style="rounded=0;whiteSpace=wrap;html=1;" vertex="1" parent="PWgpVzjd51y_IINd4fkb-26">
          <mxGeometry x="35" y="37" width="490" height="120" as="geometry" />
        </mxCell>
        <mxCell id="PWgpVzjd51y_IINd4fkb-51" value="Monitoring &amp;amp; Logging" style="rounded=1;whiteSpace=wrap;html=1;" vertex="1" parent="PWgpVzjd51y_IINd4fkb-26">
          <mxGeometry x="64" y="66" width="120" height="60" as="geometry" />
        </mxCell>
        <mxCell id="PWgpVzjd51y_IINd4fkb-80" value="Security" style="rounded=1;whiteSpace=wrap;html=1;" vertex="1" parent="PWgpVzjd51y_IINd4fkb-26">
          <mxGeometry x="204" y="66" width="120" height="60" as="geometry" />
        </mxCell>
        <mxCell id="PWgpVzjd51y_IINd4fkb-81" value="Authentication &amp;amp; Authroization" style="rounded=1;whiteSpace=wrap;html=1;" vertex="1" parent="PWgpVzjd51y_IINd4fkb-26">
          <mxGeometry x="364" y="66" width="120" height="60" as="geometry" />
        </mxCell>
        <mxCell id="PWgpVzjd51y_IINd4fkb-32" style="edgeStyle=orthogonalEdgeStyle;rounded=0;orthogonalLoop=1;jettySize=auto;html=1;entryX=0.5;entryY=0;entryDx=0;entryDy=0;strokeWidth=2;" edge="1" parent="PWgpVzjd51y_IINd4fkb-13" source="PWgpVzjd51y_IINd4fkb-27" target="PWgpVzjd51y_IINd4fkb-29">
          <mxGeometry relative="1" as="geometry" />
        </mxCell>
        <mxCell id="PWgpVzjd51y_IINd4fkb-35" style="edgeStyle=orthogonalEdgeStyle;rounded=0;orthogonalLoop=1;jettySize=auto;html=1;entryX=0.5;entryY=0;entryDx=0;entryDy=0;strokeColor=default;strokeWidth=2;align=center;verticalAlign=middle;fontFamily=Helvetica;fontSize=11;fontColor=default;labelBackgroundColor=default;endArrow=classic;" edge="1" parent="PWgpVzjd51y_IINd4fkb-13" source="PWgpVzjd51y_IINd4fkb-28" target="PWgpVzjd51y_IINd4fkb-31">
          <mxGeometry relative="1" as="geometry" />
        </mxCell>
        <mxCell id="PWgpVzjd51y_IINd4fkb-47" style="edgeStyle=orthogonalEdgeStyle;rounded=0;orthogonalLoop=1;jettySize=auto;html=1;entryX=0.5;entryY=0;entryDx=0;entryDy=0;strokeColor=default;strokeWidth=2;align=center;verticalAlign=middle;fontFamily=Helvetica;fontSize=11;fontColor=default;labelBackgroundColor=default;endArrow=classic;" edge="1" parent="PWgpVzjd51y_IINd4fkb-13" source="PWgpVzjd51y_IINd4fkb-38" target="PWgpVzjd51y_IINd4fkb-46">
          <mxGeometry relative="1" as="geometry" />
        </mxCell>
        <mxCell id="PWgpVzjd51y_IINd4fkb-48" style="edgeStyle=orthogonalEdgeStyle;rounded=0;orthogonalLoop=1;jettySize=auto;html=1;strokeColor=default;strokeWidth=2;align=center;verticalAlign=middle;fontFamily=Helvetica;fontSize=11;fontColor=default;labelBackgroundColor=default;endArrow=classic;exitX=0.75;exitY=1;exitDx=0;exitDy=0;" edge="1" parent="PWgpVzjd51y_IINd4fkb-13" source="PWgpVzjd51y_IINd4fkb-46" target="PWgpVzjd51y_IINd4fkb-45">
          <mxGeometry relative="1" as="geometry" />
        </mxCell>
        <mxCell id="PWgpVzjd51y_IINd4fkb-50" style="edgeStyle=orthogonalEdgeStyle;rounded=0;orthogonalLoop=1;jettySize=auto;html=1;strokeColor=default;strokeWidth=2;align=center;verticalAlign=middle;fontFamily=Helvetica;fontSize=11;fontColor=default;labelBackgroundColor=default;endArrow=classic;" edge="1" parent="PWgpVzjd51y_IINd4fkb-13" source="PWgpVzjd51y_IINd4fkb-46" target="PWgpVzjd51y_IINd4fkb-49">
          <mxGeometry relative="1" as="geometry" />
        </mxCell>
        <mxCell id="PWgpVzjd51y_IINd4fkb-83" style="edgeStyle=orthogonalEdgeStyle;rounded=0;orthogonalLoop=1;jettySize=auto;html=1;entryX=0.145;entryY=-0.025;entryDx=0;entryDy=0;entryPerimeter=0;jumpStyle=arc;strokeColor=default;strokeWidth=2;align=center;verticalAlign=middle;fontFamily=Helvetica;fontSize=11;fontColor=default;labelBackgroundColor=default;endArrow=classic;" edge="1" parent="PWgpVzjd51y_IINd4fkb-13" source="PWgpVzjd51y_IINd4fkb-46" target="PWgpVzjd51y_IINd4fkb-82">
          <mxGeometry relative="1" as="geometry" />
        </mxCell>
        <mxCell id="PWgpVzjd51y_IINd4fkb-84" style="edgeStyle=orthogonalEdgeStyle;rounded=0;orthogonalLoop=1;jettySize=auto;html=1;entryX=0.859;entryY=-0.017;entryDx=0;entryDy=0;entryPerimeter=0;jumpStyle=arc;strokeColor=default;strokeWidth=2;align=center;verticalAlign=middle;fontFamily=Helvetica;fontSize=11;fontColor=default;labelBackgroundColor=default;endArrow=classic;" edge="1" parent="PWgpVzjd51y_IINd4fkb-13" source="PWgpVzjd51y_IINd4fkb-38" target="PWgpVzjd51y_IINd4fkb-82">
          <mxGeometry relative="1" as="geometry" />
        </mxCell>
        <mxCell id="PWgpVzjd51y_IINd4fkb-85" style="edgeStyle=orthogonalEdgeStyle;rounded=0;orthogonalLoop=1;jettySize=auto;html=1;entryX=0.969;entryY=-0.025;entryDx=0;entryDy=0;entryPerimeter=0;jumpStyle=arc;strokeColor=default;strokeWidth=2;align=center;verticalAlign=middle;fontFamily=Helvetica;fontSize=11;fontColor=default;labelBackgroundColor=default;endArrow=classic;" edge="1" parent="PWgpVzjd51y_IINd4fkb-13" source="PWgpVzjd51y_IINd4fkb-36" target="PWgpVzjd51y_IINd4fkb-82">
          <mxGeometry relative="1" as="geometry">
            <Array as="points">
              <mxPoint x="510" y="390" />
              <mxPoint x="510" y="700" />
              <mxPoint x="509" y="700" />
            </Array>
          </mxGeometry>
        </mxCell>
        <mxCell id="PWgpVzjd51y_IINd4fkb-42" value="External Vendor" style="text;html=1;align=left;verticalAlign=middle;whiteSpace=wrap;rounded=0;fontStyle=1;fontSize=14;" vertex="1" parent="1">
          <mxGeometry x="864" y="148" width="160" height="30" as="geometry" />
        </mxCell>
        <mxCell id="PWgpVzjd51y_IINd4fkb-43" value="3rd Party NLP Processing" style="rounded=1;whiteSpace=wrap;html=1;" vertex="1" parent="1">
          <mxGeometry x="884" y="260" width="166" height="40" as="geometry" />
        </mxCell>
        <mxCell id="PWgpVzjd51y_IINd4fkb-44" style="edgeStyle=orthogonalEdgeStyle;rounded=0;orthogonalLoop=1;jettySize=auto;html=1;entryX=0;entryY=0.5;entryDx=0;entryDy=0;jumpStyle=arc;strokeColor=default;strokeWidth=2;align=center;verticalAlign=middle;fontFamily=Helvetica;fontSize=11;fontColor=default;labelBackgroundColor=default;endArrow=classic;exitX=0.5;exitY=0;exitDx=0;exitDy=0;" edge="1" parent="1" source="PWgpVzjd51y_IINd4fkb-90" target="PWgpVzjd51y_IINd4fkb-43">
          <mxGeometry relative="1" as="geometry" />
        </mxCell>
        <mxCell id="PWgpVzjd51y_IINd4fkb-88" value="External vendor Calendar Integration" style="rounded=1;whiteSpace=wrap;html=1;" vertex="1" parent="1">
          <mxGeometry x="906" y="350" width="120" height="60" as="geometry" />
        </mxCell>
        <mxCell id="PWgpVzjd51y_IINd4fkb-89" style="edgeStyle=orthogonalEdgeStyle;rounded=0;orthogonalLoop=1;jettySize=auto;html=1;entryX=0.5;entryY=1;entryDx=0;entryDy=0;strokeColor=default;strokeWidth=2;align=center;verticalAlign=middle;fontFamily=Helvetica;fontSize=11;fontColor=default;labelBackgroundColor=default;jumpStyle=arc;endArrow=classic;exitX=1;exitY=0.5;exitDx=0;exitDy=0;" edge="1" parent="1" source="PWgpVzjd51y_IINd4fkb-90" target="PWgpVzjd51y_IINd4fkb-88">
          <mxGeometry relative="1" as="geometry" />
        </mxCell>
        <mxCell id="PWgpVzjd51y_IINd4fkb-90" value="External Gateway" style="rounded=1;whiteSpace=wrap;html=1;" vertex="1" parent="1">
          <mxGeometry x="726" y="506" width="130" height="70" as="geometry" />
        </mxCell>
        <mxCell id="PWgpVzjd51y_IINd4fkb-93" style="edgeStyle=orthogonalEdgeStyle;rounded=0;orthogonalLoop=1;jettySize=auto;html=1;entryX=0;entryY=0.5;entryDx=0;entryDy=0;strokeColor=default;strokeWidth=2;align=center;verticalAlign=middle;fontFamily=Helvetica;fontSize=11;fontColor=default;labelBackgroundColor=default;jumpStyle=arc;endArrow=classic;" edge="1" parent="1" source="PWgpVzjd51y_IINd4fkb-38" target="PWgpVzjd51y_IINd4fkb-90">
          <mxGeometry relative="1" as="geometry" />
        </mxCell>
        <mxCell id="PWgpVzjd51y_IINd4fkb-86" value="" style="image;aspect=fixed;perimeter=ellipsePerimeter;html=1;align=center;shadow=0;dashed=0;spacingTop=3;image=img/lib/active_directory/secure.svg;" vertex="1" parent="1">
          <mxGeometry x="808" y="490" width="18.56" height="29" as="geometry" />
        </mxCell>
        <mxCell id="PWgpVzjd51y_IINd4fkb-94" value="Speech Recognition Engine" style="rounded=1;whiteSpace=wrap;html=1;" vertex="1" parent="1">
          <mxGeometry x="884" y="190" width="166" height="40" as="geometry" />
        </mxCell>
        <mxCell id="PWgpVzjd51y_IINd4fkb-95" style="edgeStyle=orthogonalEdgeStyle;rounded=0;orthogonalLoop=1;jettySize=auto;html=1;entryX=-0.008;entryY=0.4;entryDx=0;entryDy=0;entryPerimeter=0;" edge="1" parent="1" source="PWgpVzjd51y_IINd4fkb-90" target="PWgpVzjd51y_IINd4fkb-94">
          <mxGeometry relative="1" as="geometry">
            <Array as="points">
              <mxPoint x="750" y="206" />
            </Array>
          </mxGeometry>
        </mxCell>
      </root>
    </mxGraphModel>
  </diagram>
</mxfile>
